<svg id="Layer_1" data-name="Layer 1" xmlns="http://www.w3.org/2000/svg" viewBox="0 0 553.69 720.47"><defs><style>.cls-1{fill:#de5fbf;}</style></defs><title>kt</title><path class="cls-1" d="M618.92,458.43a18.52,18.52,0,0,1-13.26-5.26l-81.82-80,92.1-92.11a65.49,65.49,0,0,1,46.68-19.89h.53a66.18,66.18,0,0,1,66.09,65.54,65.49,65.49,0,0,1-3.75,22.47,66.24,66.24,0,0,1-15.2,24.33L631.59,453A18.44,18.44,0,0,1,619,458.43Zm9-28.09.07.06S628,430.36,627.93,430.34Zm-58.74-57.43L618.39,421l69.22-69.87a34.71,34.71,0,0,0,7.81-12.56v0A33.66,33.66,0,0,0,697.35,327a34.24,34.24,0,0,0-34.19-33.9h-.28a34,34,0,0,0-24.23,10.4Z" transform="translate(-256.31 -134.43)"/><path class="cls-1" d="M546.64,395.47l-18-17.61a54.7,54.7,0,0,1-6.53-6.45,66,66,0,0,1,49.21-109.52h.47a66.12,66.12,0,0,1,57.9,34.2l5.81,10.5Zm25.15-101.69h-.23a34.22,34.22,0,0,0-33.89,34.47,33.79,33.79,0,0,0,2,11.3,34.31,34.31,0,0,0,6.45,10.89l.19.23,48.21-48.22A34.2,34.2,0,0,0,571.79,293.78Z" transform="translate(-256.31 -134.43)"/><path class="cls-1" d="M589,504.23,452,619.94l149.08,235,209-1.37ZM435.38,619.49l-3.19-485.06L256.31,275.1l3.8,577.77L435.94,704.39Z" transform="translate(-256.31 -134.43)"/></svg>