<?xml version="1.0" encoding="utf-8"?>
<!-- Generator: Adobe Illustrator 22.1.0, SVG Export Plug-In . SVG Version: 6.00 Build 0)  -->
<svg version="1.1" id="Layer_1" xmlns="http://www.w3.org/2000/svg" xmlns:xlink="http://www.w3.org/1999/xlink" x="0px" y="0px"
	 viewBox="0 0 571.7 568.1" style="enable-background:new 0 0 571.7 568.1;" xml:space="preserve">
<style type="text/css">
	.st0{opacity:0.17;}
	.st1{fill:#DE5FBF;}
</style>
<g class="st0">
	<path class="st1" d="M492.4,295l35.4-35.3c26.6-26.5,39.9-61.5,39.9-96.5c0-13.7-2-27.4-6.1-40.6c-6.3-20.5-17.6-39.8-33.8-55.9
		c-10.5-10.4-22.3-18.8-34.8-25.2C441.6,15.6,377,24,334.3,66.6L149,251.5l-16.1-16l-40.2-40.1l-6.8-6.8l-0.3,0.3v-72.7
		c0-16.6,13.5-30,30.1-30h57.9c16.6,0,30.1,13.4,30.1,30v20.6c0,2,2.5,3.1,3.9,1.6l56.3-57.1c0.4-0.4,0.7-1,0.7-1.6V56.1
		c0-16.6-13.5-30-30.1-30H54.8c-16.6,0-30.1,13.4-30.1,30v157.6l60.9,60.8v-0.2l4.2,4.2l16.1,16.1l-0.1,0.1l227.3,227.6
		c26.6,26.5,61.7,39.8,96.8,39.8c35.1,0,70.2-13.3,96.8-39.8c53.2-53.1,53.2-140,0-193L492.4,295z M222.3,178.6L222.3,178.6l0,3.7h0
		V178.6z M483.6,479.3c-14.8,14.7-34.2,22.1-53.7,22.1c-19.5,0-38.9-7.4-53.7-22.1L195.4,298.8c-2-2-2-5.2,0-7.2l182.5-182
		c29.5-29.5,77.9-29.5,107.4,0c14.8,14.7,22.1,34.1,22.1,53.6c0,19.4-7.4,38.8-22.1,53.6l-77.6,77.4l42.8,42.7l33.2,35.3
		C513.2,401.6,513.2,449.8,483.6,479.3z"/>
	<path class="st1" d="M85.6,466.4c0,15,11,27.4,25.4,29.6c1.5,0.2,3.1,0.4,4.7,0.4h61c14.9,0,26.9-12,26.9-26.9v-21.4
		c0-3.1,3.7-4.6,5.9-2.4l7.7,7.7l46.4,46.3l0.1,0.4l0.5,30.1c0,2.6-0.3,5.1-0.9,7.6c-3.7,12.5-15.2,21.5-28.9,21.5H54.8
		c-15.3,0-27.9-11.4-29.8-26.1c-0.1-1-0.1-2-0.1-3V369.5l19.8-19.8l35.7-35.6l5.3,5.3l25.8,25.8l10.9,10.9l-35.7,35.6L85.6,466.4z"
		/>
</g>
<title>kt</title>
<g>
	<path class="st1" d="M478.4,281.8l35.4-35.3c26.6-26.5,39.9-61.5,39.9-96.5c0-13.7-2-27.4-6.1-40.6c-6.3-20.5-17.6-39.8-33.8-55.9
		c-10.5-10.4-22.3-18.8-34.8-25.2C427.6,2.4,363,10.8,320.3,53.4L135,238.3l-16.1-16l-40.2-40.1l-6.8-6.8l-0.3,0.3v-72.7
		c0-16.6,13.5-30,30.1-30h57.9c16.6,0,30.1,13.4,30.1,30v20.6c0,2,2.5,3.1,3.9,1.6L249.9,68c0.4-0.4,0.7-1,0.7-1.6V42.9
		c0-16.6-13.5-30-30.1-30H40.8c-16.6,0-30.1,13.4-30.1,30v157.6l60.9,60.8V261l4.2,4.2L92,281.3l-0.1,0.1L319.2,509
		c26.6,26.5,61.7,39.8,96.8,39.8c35.1,0,70.2-13.3,96.8-39.8c53.2-53.1,53.2-140,0-193L478.4,281.8z M208.3,165.4L208.3,165.4l0,3.7
		h0V165.4z M469.7,466.1c-14.8,14.7-34.2,22.1-53.7,22.1c-19.5,0-38.9-7.4-53.7-22.1L181.4,285.6c-2-2-2-5.2,0-7.2l182.5-182
		c29.5-29.5,77.9-29.5,107.4,0c14.8,14.7,22.1,34.1,22.1,53.6c0,19.4-7.4,38.8-22.1,53.6L393.6,281l42.8,42.7l33.2,35.3
		C499.2,388.4,499.2,436.6,469.7,466.1z"/>
	<path class="st1" d="M71.6,453.2c0,15,11,27.4,25.4,29.6c1.5,0.2,3.1,0.4,4.7,0.4h61c14.9,0,26.9-12,26.9-26.9v-21.4
		c0-3.1,3.7-4.6,5.9-2.4l7.7,7.7l46.4,46.3l0.1,0.4l0.5,30.1c0,2.6-0.3,5.1-0.9,7.6c-3.7,12.5-15.2,21.5-28.9,21.5H40.8
		c-15.3,0-27.9-11.4-29.8-26.1c-0.1-1-0.1-2-0.1-3V356.3l19.8-19.8l35.7-35.6l5.3,5.3l25.8,25.8l10.9,10.9l-35.7,35.6L71.6,453.2z"
		/>
</g>
</svg>
